<svg xmlns="http://www.w3.org/2000/svg" xmlns:xlink="http://www.w3.org/1999/xlink" contentStyleType="text/css" height="591px" preserveAspectRatio="none" style="width:546px;height:591px;background:#FFFFFF;" version="1.1" viewBox="0 0 546 591" width="546px" zoomAndPan="magnify"><defs/><g><g id="elem_Application"><rect fill="#F1F1F1" height="37.6094" style="stroke:#181818;stroke-width:0.5;" width="160" x="278.5" y="57.5"/><a href="#application-component" target="_top" title="#application-component" xlink:actuate="onRequest" xlink:href="#application-component" xlink:show="new" xlink:title="#application-component" xlink:type="simple"><text fill="#0000FF" font-family="sans-serif" font-size="14" lengthAdjust="spacing" text-decoration="underline" textLength="146" x="285.5" y="74.0332">Application Component</text></a><line style="stroke:#181818;stroke-width:0.5;" x1="279.5" x2="437.5" y1="79.1094" y2="79.1094"/></g><g id="elem_GMN3"><path d="M21.5,6 L21.5,146.8125 A0,0 0 0 0 21.5,146.8125 L243.5,146.8125 A0,0 0 0 0 243.5,146.8125 L243.5,80.5 L278.25,76.5 L243.5,72.5 L243.5,16 L233.5,6 L21.5,6 A0,0 0 0 0 21.5,6 " fill="#FEFFDD" style="stroke:#181818;stroke-width:0.5;"/><path d="M233.5,6 L233.5,16 L243.5,16 L233.5,6 " fill="#FEFFDD" style="stroke:#181818;stroke-width:0.5;"/><text fill="#000000" font-family="sans-serif" font-size="13" lengthAdjust="spacing" textLength="190" x="27.5" y="24.4951">- Next.js root page component at</text><text fill="#000000" font-family="sans-serif" font-size="13" lengthAdjust="spacing" textLength="8" x="27.5" y="40.8467">&#160;&#160;</text><a href="https://github.com/karmaniverous/nextjs-template/blob/main/pages/_app.jsx" target="_top" title="https://github.com/karmaniverous/nextjs-template/blob/main/pages/_app.jsx" xlink:actuate="onRequest" xlink:href="https://github.com/karmaniverous/nextjs-template/blob/main/pages/_app.jsx" xlink:show="new" xlink:title="https://github.com/karmaniverous/nextjs-template/blob/main/pages/_app.jsx" xlink:type="simple"><text fill="#0000FF" font-family="sans-serif" font-size="13" lengthAdjust="spacing" text-decoration="underline" textLength="49" x="35.5" y="40.8467">_app.jsx</text></a><text fill="#000000" font-family="sans-serif" font-size="13" lengthAdjust="spacing" textLength="201" x="27.5" y="57.1982">- Performs server-side redirections.</text><text fill="#000000" font-family="sans-serif" font-size="13" lengthAdjust="spacing" textLength="169" x="27.5" y="73.5498">- Completes server-side state</text><text fill="#000000" font-family="sans-serif" font-size="13" lengthAdjust="spacing" textLength="72" x="35.5" y="89.9014">initialization.</text><text fill="#000000" font-family="sans-serif" font-size="13" lengthAdjust="spacing" textLength="147" x="27.5" y="106.2529">- Invokes client-side state</text><text fill="#000000" font-family="sans-serif" font-size="13" lengthAdjust="spacing" textLength="72" x="35.5" y="122.6045">initialization.</text><text fill="#000000" font-family="sans-serif" font-size="13" lengthAdjust="spacing" textLength="128" x="27.5" y="138.9561">- Renders page frame.</text></g><g id="elem_Route"><rect fill="#F1F1F1" height="37.6094" style="stroke:#181818;stroke-width:0.5;" width="129" x="294" y="243.5"/><a href="#route-components" target="_top" title="#route-components" xlink:actuate="onRequest" xlink:href="#route-components" xlink:show="new" xlink:title="#route-components" xlink:type="simple"><text fill="#0000FF" font-family="sans-serif" font-size="14" lengthAdjust="spacing" text-decoration="underline" textLength="115" x="301" y="260.0332">Route Component</text></a><line style="stroke:#181818;stroke-width:0.5;" x1="295" x2="422" y1="265.1094" y2="265.1094"/></g><g id="elem_GMN7"><path d="M6,225 L6,300.4063 A0,0 0 0 0 6,300.4063 L259,300.4063 A0,0 0 0 0 259,300.4063 L259,266.5 L293.71,262.5 L259,258.5 L259,235 L249,225 L6,225 A0,0 0 0 0 6,225 " fill="#FEFFDD" style="stroke:#181818;stroke-width:0.5;"/><path d="M249,225 L249,235 L259,235 L249,225 " fill="#FEFFDD" style="stroke:#181818;stroke-width:0.5;"/><text fill="#000000" font-family="sans-serif" font-size="13" lengthAdjust="spacing" textLength="210" x="12" y="243.4951">- Located within the pages directory.</text><text fill="#000000" font-family="sans-serif" font-size="13" lengthAdjust="spacing" textLength="148" x="12" y="259.8467">- Extracts route variables.</text><text fill="#000000" font-family="sans-serif" font-size="13" lengthAdjust="spacing" textLength="179" x="12" y="276.1982">- Manages route-specific state.</text><text fill="#000000" font-family="sans-serif" font-size="13" lengthAdjust="spacing" textLength="232" x="12" y="292.5498">- Selects &amp; configures page component.</text></g><g id="elem_Page"><rect fill="#F1F1F1" height="37.6094" style="stroke:#181818;stroke-width:0.5;" width="124" x="296.5" y="405"/><a href="#page-components" target="_top" title="#page-components" xlink:actuate="onRequest" xlink:href="#page-components" xlink:show="new" xlink:title="#page-components" xlink:type="simple"><text fill="#0000FF" font-family="sans-serif" font-size="14" lengthAdjust="spacing" text-decoration="underline" textLength="110" x="303.5" y="421.5332">Page Component</text></a><line style="stroke:#181818;stroke-width:0.5;" x1="297.5" x2="419.5" y1="426.6094" y2="426.6094"/></g><g id="elem_GMN11"><path d="M33.5,378 L33.5,469.7578 A0,0 0 0 0 33.5,469.7578 L261.5,469.7578 A0,0 0 0 0 261.5,469.7578 L261.5,428 L296.46,424 L261.5,420 L261.5,388 L251.5,378 L33.5,378 A0,0 0 0 0 33.5,378 " fill="#FEFFDD" style="stroke:#181818;stroke-width:0.5;"/><path d="M251.5,378 L251.5,388 L261.5,388 L251.5,378 " fill="#FEFFDD" style="stroke:#181818;stroke-width:0.5;"/><text fill="#000000" font-family="sans-serif" font-size="13" lengthAdjust="spacing" textLength="199" x="39.5" y="396.4951">- Top of in-frame display hierarchy.</text><text fill="#000000" font-family="sans-serif" font-size="13" lengthAdjust="spacing" textLength="207" x="39.5" y="412.8467">- Abstracts common page elements</text><text fill="#000000" font-family="sans-serif" font-size="13" lengthAdjust="spacing" textLength="83" x="47.5" y="429.1982">across routes.</text><text fill="#000000" font-family="sans-serif" font-size="13" lengthAdjust="spacing" textLength="178" x="39.5" y="445.5498">- Manages page-specific state.</text><text fill="#000000" font-family="sans-serif" font-size="13" lengthAdjust="spacing" textLength="139" x="39.5" y="461.9014">- Renders page content.</text></g><g id="elem_UI"><rect fill="#F1F1F1" height="37.6094" style="stroke:#181818;stroke-width:0.5;" width="141" x="288" y="548"/><text fill="#000000" font-family="sans-serif" font-size="14" lengthAdjust="spacing" textLength="127" x="295" y="564.5332">Content Component</text><line style="stroke:#181818;stroke-width:0.5;" x1="289" x2="428" y1="569.6094" y2="569.6094"/></g><!--reverse link Application to Route--><g id="link_Application_Route"><path codeLine="33" d="M358.5,107.82 C358.5,143.08 358.5,208.05 358.5,243.26 " fill="none" id="Application-backto-Route" style="stroke:#181818;stroke-width:1.0;"/><polygon fill="none" points="358.5,95.82,354.5,101.82,358.5,107.82,362.5,101.82,358.5,95.82" style="stroke:#181818;stroke-width:1.0;"/><polygon fill="#000000" points="363.5,181.1758,360.5611,190.2209,366.4389,190.2209,363.5,181.1758" style="stroke:#000000;stroke-width:1.0;"/><text fill="#000000" font-family="sans-serif" font-size="13" lengthAdjust="spacing" textLength="77" x="372.5" y="191.4951">prop injection</text><text fill="#000000" font-family="sans-serif" font-size="13" lengthAdjust="spacing" textLength="7" x="350.5594" y="116.7571">1</text><text fill="#000000" font-family="sans-serif" font-size="13" lengthAdjust="spacing" textLength="7" x="350.4281" y="232.5265">1</text></g><!--reverse link Route to Page--><g id="link_Route_Page"><path codeLine="34" d="M358.5,293.8 C358.5,324.56 358.5,374.29 358.5,404.92 " fill="none" id="Route-backto-Page" style="stroke:#181818;stroke-width:1.0;"/><polygon fill="none" points="358.5,281.8,354.5,287.8,358.5,293.8,362.5,287.8,358.5,281.8" style="stroke:#181818;stroke-width:1.0;"/><polygon fill="#000000" points="363.5,344.1758,366.4389,335.1307,360.5611,335.1307,363.5,344.1758" style="stroke:#000000;stroke-width:1.0;"/><text fill="#000000" font-family="sans-serif" font-size="13" lengthAdjust="spacing" textLength="59" x="372.5" y="344.4951">configures</text><text fill="#000000" font-family="sans-serif" font-size="13" lengthAdjust="spacing" textLength="7" x="350.5594" y="302.7317">1</text><text fill="#000000" font-family="sans-serif" font-size="13" lengthAdjust="spacing" textLength="5" x="352.7344" y="394.2355">*</text></g><!--reverse link Page to UI--><g id="link_Page_UI"><path codeLine="35" d="M358.5,455.14 C358.5,482.22 358.5,520.89 358.5,547.93 " fill="none" id="Page-backto-UI" style="stroke:#181818;stroke-width:1.0;"/><polygon fill="none" points="358.5,443.14,354.5,449.14,358.5,455.14,362.5,449.14,358.5,443.14" style="stroke:#181818;stroke-width:1.0;"/><polygon fill="#000000" points="363.5,514.1758,366.4389,505.1307,360.5611,505.1307,363.5,514.1758" style="stroke:#000000;stroke-width:1.0;"/><text fill="#000000" font-family="sans-serif" font-size="13" lengthAdjust="spacing" textLength="59" x="372.5" y="514.4951">configures</text><text fill="#000000" font-family="sans-serif" font-size="13" lengthAdjust="spacing" textLength="7" x="350.5594" y="464.0287">1</text><text fill="#000000" font-family="sans-serif" font-size="13" lengthAdjust="spacing" textLength="5" x="352.7344" y="537.2486">*</text></g><!--reverse link Page to Page--><g id="link_Page_Page"><path codeLine="36" d="M432.5391,408.4074 C452.0791,408.6474 455.5,413.75 455.5,424 C455.5,434.25 440.08,439.5 420.54,439.74 " fill="none" id="Page-backto-Page" style="stroke:#181818;stroke-width:1.0;"/><polygon fill="none" points="420.54,408.26,426.4904,412.3334,432.5391,408.4074,426.5887,404.334,420.54,408.26" style="stroke:#181818;stroke-width:1.0;"/><polygon fill="#000000" points="460.5614,429.1754,463.389,420.0949,457.5116,420.1671,460.5614,429.1754" style="stroke:#000000;stroke-width:1.0;"/><text fill="#000000" font-family="sans-serif" font-size="13" lengthAdjust="spacing" textLength="59" x="474.5" y="429.4951">configures</text><text fill="#000000" font-family="sans-serif" font-size="13" lengthAdjust="spacing" textLength="7" x="428.5277" y="402.907">1</text><text fill="#000000" font-family="sans-serif" font-size="13" lengthAdjust="spacing" textLength="5" x="428.4058" y="438.2237">*</text></g><!--SRC=[XPF1Rjim38RlUWh20tOOu1Yx1iE0ejWXm3OKtNeAWa5sw9YfB1aYawLx-b5oEzljYfuiaBz8VZ_bK1-n4IYsstTs61mrLYZuiWdz43nwWQif2jTFqTsk0ClpdF5141osOahuZXTP7HbY20A3FI1CzQmOWEss4nbuNLK7akvKhpHVtTlOMqzdZE74bTSQHou5-y5PmQfseQvwIxvA1RdwfUDgZmiy7NOxxNo3iGsnPs2CMgXasYD4t5DKIXsJLofA60u5boeMRQEpaISXw-XFvahwZJ-7UrKtZfJWBVKj-Zr67hdRQ7jS6Gr1CiYOCFcjc8AJqmotAV32v1nTsFirgEUuXz_g7NcG3dCpXX4pn8SqnvUBHDj8sa8gUxQHREqmE_3D-dnX7847RAYbPeHA-H_eC5rzhulpBHrE4VdP8b-1Ig8vqqswz1mf1HT4FyC0eLKposoOWh1k_G4wmcXZqsMWgveVYRH-hyyn3wIJzgcJxi8sCV0Zr08p3_MISh4f1PLNiAx7r8IH8Uusnin_Zk9Z0Q4iytVSv1g6g63aZ-FZWqzcJFoJVYX6WzPpdp-R79kBxZPlIlvNvoy0]--></g></svg>