<?xml version="1.0" standalone="no"?>
<!DOCTYPE svg PUBLIC "-//W3C//DTD SVG 20010904//EN"
 "http://www.w3.org/TR/2001/REC-SVG-20010904/DTD/svg10.dtd">
<svg version="1.0" xmlns="http://www.w3.org/2000/svg"
 width="400.000000pt" height="400.000000pt" viewBox="0 0 400.000000 400.000000"
 preserveAspectRatio="xMidYMid meet">
<metadata>
Created by potrace 1.14, written by Peter Selinger 2001-2017
</metadata>
<g transform="translate(0.000000,400.000000) scale(0.100000,-0.100000)"
fill="#000000" stroke="none">
<path d="M2 3933 c2 -62 2 -64 5 -16 2 28 10 56 17 62 7 6 72 12 147 14 l134
3 -152 2 -153 2 2 -67z"/>
<path d="M1943 3993 c378 -2 996 -2 1375 0 378 1 68 2 -688 2 -756 0 -1066 -1
-687 -2z"/>
<path d="M1702 3800 c0 -14 2 -19 5 -12 2 6 2 18 0 25 -3 6 -5 1 -5 -13z"/>
<path d="M1697 3744 c-4 -4 -4 -24 -1 -46 6 -34 4 -38 -15 -38 -11 0 -21 -5
-21 -11 0 -6 10 -9 23 -6 12 3 65 8 118 12 107 8 186 -8 272 -53 48 -26 56
-36 35 -48 -7 -5 -8 -3 -3 6 5 9 4 11 -4 6 -6 -4 -46 -9 -88 -11 -58 -4 -83
-1 -100 11 -13 8 -28 12 -34 9 -5 -4 -17 -1 -25 6 -28 23 -145 59 -173 53 -51
-11 -61 -16 -56 -23 5 -9 62 -7 94 4 12 4 21 2 21 -4 0 -6 -9 -11 -21 -11 -12
0 -34 -13 -49 -30 -18 -19 -38 -30 -55 -30 -61 0 -86 44 -43 74 12 9 18 16 12
16 -17 0 -44 -35 -44 -56 0 -38 54 -57 173 -64 16 0 5 -17 -22 -33 -16 -9 -32
-28 -35 -42 -6 -25 8 -66 22 -64 20 3 32 -3 32 -16 0 -8 12 -18 26 -21 22 -6
24 -8 10 -16 -9 -5 -25 -6 -36 -3 -26 8 -26 -7 0 -23 12 -7 18 -17 15 -23 -12
-19 -24 -69 -16 -69 4 0 15 15 23 34 9 18 30 49 47 69 35 40 37 52 15 95 -8
18 -13 36 -9 42 3 5 2 10 -4 10 -5 0 -13 -9 -16 -20 -4 -13 -11 -17 -18 -13
-7 5 -20 8 -29 8 -10 0 -18 5 -17 10 0 10 42 27 97 40 28 6 31 4 26 -12 -5
-16 -4 -16 10 2 31 41 37 45 61 45 13 0 26 3 28 8 3 4 31 8 63 10 32 2 78 7
103 12 53 10 92 -3 69 -23 -24 -21 -41 -47 -30 -47 6 0 13 8 17 18 8 27 53 46
71 31 8 -7 12 -14 10 -16 -3 -3 13 -22 34 -43 44 -43 56 -86 44 -158 -16 -94
-14 -98 33 -57 21 19 25 27 15 33 -8 6 -12 29 -11 70 2 51 4 60 16 51 7 -7 15
-10 17 -8 11 12 37 72 33 75 -2 3 -10 -9 -17 -26 -7 -16 -18 -30 -25 -30 -18
0 -150 119 -164 148 -6 12 -15 22 -21 22 -6 0 -32 18 -58 39 -80 66 -125 84
-233 89 -75 4 -102 1 -127 -12 -40 -21 -42 -20 -42 7 0 26 -14 50 -23 41z m18
-189 c-30 -24 -62 -34 -50 -15 6 9 59 37 75 39 3 1 -8 -10 -25 -24z m19 -20
c-4 -8 -13 -15 -22 -15 -13 0 -12 3 4 15 24 18 25 18 18 0z"/>
<path d="M2340 3626 c0 -2 7 -7 16 -10 8 -3 12 -2 9 4 -6 10 -25 14 -25 6z"/>
<path d="M1061 3487 c20 -16 120 -66 109 -54 -18 19 -86 57 -102 57 -6 0 -9
-2 -7 -3z"/>
<path d="M1028 3473 c7 -3 16 -2 19 1 4 3 -2 6 -13 5 -11 0 -14 -3 -6 -6z"/>
<path d="M1865 3422 c4 -35 2 -59 -6 -68 -7 -9 -8 -14 -1 -14 6 0 14 4 17 10
10 16 117 62 157 67 27 4 44 0 68 -17 46 -33 49 -15 5 30 -44 46 -79 51 -173
26 -47 -13 -53 -13 -63 2 -7 13 -9 3 -4 -36z"/>
<path d="M2130 3450 c0 -14 40 -53 47 -46 8 7 -25 56 -37 56 -6 0 -10 -4 -10
-10z"/>
<path d="M912 3340 c-16 -29 -32 -42 -53 -47 -32 -6 -38 -20 -13 -30 13 -5 13
-7 2 -14 -8 -6 -1 -9 21 -9 33 0 34 1 15 15 -19 14 -19 14 2 15 28 0 53 39 52
79 -1 17 -1 31 -2 31 -1 0 -11 -18 -24 -40z"/>
<path d="M1972 3362 c2 -11 -3 -26 -11 -35 -7 -10 -9 -17 -3 -17 6 0 12 6 15
13 3 9 8 8 18 -4 22 -25 47 -30 59 -11 8 15 11 15 20 2 5 -8 10 -11 10 -6 0 5
-8 19 -17 30 -10 12 -11 15 -3 9 16 -15 30 -17 30 -5 0 8 -89 42 -109 42 -7 0
-11 -8 -9 -18z m48 -2 c12 -8 9 -10 -13 -10 -16 0 -26 4 -22 10 8 12 16 12 35
0z"/>
<path d="M1310 3339 c0 -7 -9 -9 -21 -6 -15 4 -19 2 -15 -8 3 -8 -6 -22 -20
-32 l-25 -19 41 3 c28 1 40 -2 37 -10 -2 -7 -15 -13 -28 -13 -13 -1 -29 -2
-36 -3 -13 -1 -45 -99 -45 -137 l0 -22 -24 21 c-15 15 -24 37 -28 70 -5 56
-19 77 -50 77 -11 0 -35 9 -52 19 l-32 19 -6 -29 c-3 -16 -3 -36 1 -45 5 -14
1 -16 -25 -12 -30 4 -31 4 -15 -14 9 -10 34 -23 56 -30 21 -6 41 -18 44 -25 3
-7 9 -13 15 -13 5 0 7 4 4 9 -8 12 14 71 25 71 5 0 9 -18 9 -40 0 -22 -5 -40
-11 -40 -6 0 5 -15 23 -32 63 -62 64 -64 24 -83 -37 -18 -39 -22 -37 -65 3
-40 -19 -164 -31 -175 -7 -7 -8 0 -3 23 4 19 4 53 0 75 -5 35 -15 49 -60 85
-51 40 -103 67 -112 58 -2 -2 15 -15 39 -29 52 -30 73 -53 82 -89 5 -22 2 -28
-24 -37 -17 -5 -30 -14 -30 -19 0 -6 -11 -13 -24 -16 -13 -3 -27 -13 -30 -22
-5 -12 -2 -15 10 -10 12 5 15 2 9 -11 -14 -37 -18 -110 -6 -118 18 -10 -6 -35
-34 -35 l-23 0 21 56 c20 54 20 57 3 88 -12 22 -42 47 -91 75 -40 22 -85 57
-101 76 -20 25 -30 32 -36 23 -6 -10 -8 -10 -8 0 0 6 -4 12 -10 12 -41 0 60
-89 157 -139 31 -15 39 -25 41 -50 2 -27 -1 -31 -23 -31 -16 0 -31 -10 -42
-27 -10 -16 -22 -31 -27 -34 -5 -4 -6 -11 -3 -15 3 -5 0 -36 -7 -69 l-12 -60
-49 -3 c-68 -4 -86 11 -78 66 5 38 23 61 23 29 0 -21 34 -47 48 -38 10 6 10
11 -3 21 -19 16 -20 34 0 27 8 -4 17 -2 20 3 4 6 1 10 -5 10 -6 0 -9 4 -5 9 3
6 -9 7 -30 4 -24 -4 -35 -2 -35 7 0 7 -7 10 -15 7 -8 -4 -17 -2 -20 2 -2 5
-15 11 -27 14 -22 6 -22 5 -4 -8 20 -15 16 -45 -7 -45 -8 0 -22 -10 -33 -21
l-19 -21 32 6 c18 4 37 5 43 1 13 -8 -13 -60 -37 -74 -16 -9 -16 -10 3 -11 12
0 27 6 33 14 10 12 18 9 49 -23 31 -32 46 -39 91 -44 30 -4 59 -11 65 -17 5
-5 19 -10 29 -10 14 0 17 -5 12 -17 -4 -10 -9 -33 -12 -51 -8 -44 -89 -117
-181 -162 -39 -19 -73 -42 -75 -50 -2 -8 5 -43 16 -77 14 -46 23 -60 34 -56
12 5 12 7 1 15 -9 6 -6 7 9 3 18 -5 33 4 70 41 26 27 56 49 65 49 23 2 23 0
-9 -44 -21 -30 -81 -83 -125 -112 -9 -6 -7 -14 27 -96 18 -44 45 -58 45 -24 0
35 23 42 50 14 17 -18 21 -28 12 -30 -6 -3 -10 -9 -6 -14 3 -5 0 -9 -5 -9 -6
0 -11 -4 -11 -10 0 -18 19 -11 52 19 31 27 32 30 21 66 -10 31 -10 36 4 31 8
-3 18 -6 23 -6 5 0 8 -51 7 -112 -2 -94 -5 -113 -17 -112 -12 1 -14 -9 -12
-40 2 -26 -6 -69 -22 -116 -14 -40 -26 -84 -26 -97 0 -56 71 -146 101 -127 7
4 10 2 7 -7 -2 -8 -27 -27 -55 -44 -120 -71 -117 -69 -150 -73 -14 -2 -53 -73
-53 -97 0 -8 -5 -15 -10 -15 -6 0 -15 -11 -20 -25 -6 -16 -17 -25 -30 -25 -12
0 -18 -4 -15 -10 18 -30 117 17 174 81 22 26 39 48 37 50 -3 2 10 5 27 6 56 4
79 13 73 28 -3 8 0 12 7 10 7 -2 30 19 52 47 59 74 76 93 85 91 4 -1 27 38 51
87 24 49 46 89 49 89 14 1 50 -72 45 -90 -4 -11 0 -30 9 -44 14 -21 12 -34
-25 -169 -41 -147 -85 -258 -134 -336 -15 -23 -30 -67 -35 -98 -7 -39 -17 -63
-35 -79 -14 -13 -25 -34 -25 -46 0 -12 -14 -42 -30 -67 -31 -47 -38 -92 -19
-133 12 -26 -3 -166 -19 -176 -13 -8 -21 -60 -11 -67 5 -3 10 -26 11 -52 1
-42 2 -43 5 -10 5 45 30 58 43 22 6 -14 10 -33 10 -43 0 -10 7 -24 16 -31 8
-8 14 -9 13 -4 -4 21 2 25 16 10 8 -8 15 -21 15 -30 0 -8 15 -26 33 -40 31
-24 41 -26 138 -26 l104 1 -57 29 c-63 33 -73 51 -64 113 11 71 15 73 92 39
38 -16 77 -32 86 -35 14 -5 16 -12 8 -34 -4 -15 -11 -47 -14 -71 l-6 -42 435
0 c239 0 435 1 435 3 0 1 -7 36 -16 77 -8 41 -18 97 -21 123 -5 45 -4 50 27
76 31 26 33 30 28 79 -3 29 -1 55 3 58 5 3 9 18 9 33 0 15 7 36 15 47 8 10 15
29 15 42 0 21 24 50 169 208 191 207 369 465 426 617 10 26 23 47 30 47 7 0
54 -21 104 -46 50 -25 113 -54 139 -63 54 -20 56 -33 12 -81 -31 -33 -38 -50
-20 -50 6 0 28 28 51 62 32 51 38 68 33 93 -6 30 -24 59 -24 39 0 -5 -22 -11
-48 -12 -40 -1 -57 4 -102 33 -67 43 -81 77 -68 169 5 34 7 71 5 84 -2 12 0
22 4 22 5 0 9 8 9 18 0 17 85 112 101 112 4 0 11 -5 14 -10 4 -7 12 -7 25 0
31 16 68 11 109 -14 21 -14 42 -22 47 -18 4 4 5 3 2 -3 -3 -5 0 -16 8 -23 8
-8 14 -9 14 -2 0 6 12 3 26 -7 l26 -17 -23 45 c-34 66 -34 79 1 79 32 0 116
-30 157 -57 14 -10 33 -18 41 -19 9 -2 42 -29 74 -61 32 -32 62 -57 67 -56 6
2 8 -4 5 -12 -4 -9 -1 -15 7 -15 7 0 20 -6 28 -13 21 -18 102 -49 109 -43 3 3
-11 12 -31 21 -19 8 -69 45 -110 82 -92 83 -112 100 -165 137 -23 16 -42 32
-42 36 0 4 -11 11 -24 14 -15 4 -34 23 -48 48 -24 44 -107 96 -141 90 -10 -2
-17 0 -15 5 1 4 -8 28 -20 52 -12 25 -22 50 -22 57 0 20 -114 167 -152 196
-67 51 -186 100 -250 104 -84 5 -128 19 -164 51 -107 98 -182 162 -201 172
-30 15 -43 70 -44 183 -2 142 10 248 28 248 9 0 3 10 -15 25 -17 14 -33 25
-37 25 -4 0 -3 -26 1 -57 10 -75 8 -102 -11 -176 -16 -66 -58 -117 -95 -117
-11 0 -49 -11 -86 -25 -36 -14 -75 -25 -85 -25 -11 0 -54 -35 -97 -79 -42 -43
-92 -86 -110 -95 -64 -33 -154 -17 -178 33 -11 21 -83 59 -149 79 -25 7 -46
33 -40 49 2 7 -7 26 -20 42 -28 32 -31 51 -13 69 9 9 9 12 0 12 -6 0 -21 19
-33 43 -21 40 -23 41 -32 20 -24 -54 26 -173 94 -226 95 -72 91 -68 74 -87
-22 -24 -86 -33 -235 -35 -69 0 -134 -5 -144 -10 -19 -8 -19 -8 0 21 25 35 57
114 49 122 -2 3 -10 -9 -16 -26 -11 -32 -32 -42 -45 -21 -10 16 16 115 36 136
9 10 15 23 13 29 -5 15 39 26 47 13 7 -10 30 56 30 86 0 9 13 37 30 61 32 48
25 61 -9 17 l-20 -28 -1 24 c0 35 28 50 93 51 53 0 58 2 67 26 10 26 10 26 93
19 45 -4 89 -9 97 -10 8 -2 23 -4 33 -4 15 -1 16 -4 7 -21 -8 -15 -17 -19 -32
-14 -16 5 -19 3 -14 -13 5 -15 -4 -23 -49 -42 -30 -13 -66 -34 -80 -46 -13
-13 -29 -25 -36 -27 -8 -3 -9 -7 -3 -11 6 -3 23 6 40 20 42 37 130 73 178 73
38 1 39 2 22 15 -24 18 -14 45 16 45 13 0 48 -7 78 -15 30 -8 80 -14 110 -14
l55 2 -66 8 c-36 5 -77 13 -90 18 -27 10 -26 11 66 37 49 14 56 18 38 25 -12
4 -49 2 -84 -6 -69 -14 -95 -9 -132 25 l-22 21 -9 -28 c-5 -15 -10 -29 -11
-31 -5 -6 -185 31 -185 38 0 4 7 25 16 46 l16 39 -38 32 c-32 29 -58 39 -87
34 -4 -1 -7 11 -6 26 0 16 -2 38 -6 51 -9 26 4 28 45 7 17 -9 30 -13 30 -10 0
5 -75 45 -85 45 -3 0 -5 -5 -5 -11z m92 -157 c15 -15 16 -23 6 -57 -6 -22 -13
-35 -15 -28 -2 7 -12 10 -21 7 -15 -5 -15 -4 1 9 11 9 15 21 10 32 -5 13 -3
16 7 10 8 -5 11 -3 8 5 -2 7 -14 17 -26 21 -17 6 -22 5 -22 -7 0 -9 5 -12 11
-8 7 4 10 2 8 -5 -3 -7 -8 -12 -12 -12 -4 1 -15 1 -24 1 -13 0 -14 3 -5 12 15
15 16 32 2 23 -5 -3 -10 1 -10 11 0 13 6 15 32 10 18 -4 41 -14 50 -24z m-56
-67 c-11 -8 -14 -15 -7 -15 7 0 9 -4 6 -10 -9 -14 -24 -12 -21 3 3 20 16 37
29 37 7 0 3 -7 -7 -15z m12 -49 c-12 -9 -14 -16 -7 -23 8 -8 7 -13 0 -17 -6
-4 -11 0 -11 8 0 9 -6 16 -12 16 -7 0 -2 9 12 20 14 10 27 16 30 13 3 -2 -3
-10 -12 -17z m-1 -238 c-3 -8 -6 -5 -6 6 -1 11 2 17 5 13 3 -3 4 -12 1 -19z
m-243 -67 c3 -5 -1 -11 -9 -14 -9 -4 -12 -1 -8 9 6 16 10 17 17 5z m1185 -114
c0 -22 8 -63 17 -93 20 -71 9 -106 -57 -179 -53 -58 -98 -90 -164 -116 -26
-11 -39 -22 -37 -33 2 -9 -1 -16 -7 -16 -5 0 -16 -6 -23 -13 -18 -17 -145 -89
-188 -107 -19 -7 -53 -29 -76 -47 l-41 -33 -13 41 c-8 22 -26 55 -42 72 -15
18 -44 61 -63 96 -40 71 -38 82 22 102 30 10 38 9 47 -3 15 -19 65 -52 72 -46
2 3 -11 17 -31 32 -19 15 -35 31 -35 35 0 14 51 25 98 22 43 -3 56 11 31 36
-15 15 -5 30 34 50 36 18 90 59 160 120 47 41 107 78 222 139 l60 31 6 -26 c4
-14 7 -43 8 -64z m-1509 -409 c0 -19 -18 -43 -25 -36 -4 3 -2 16 5 27 12 24
20 27 20 9z m1405 -48 c-61 -63 -182 -117 -285 -126 l-45 -4 50 27 c69 38 277
131 294 132 9 1 4 -11 -14 -29z m-628 -29 c22 -16 43 -38 46 -50 5 -20 3 -19
-41 5 -55 31 -48 24 -56 52 -10 29 3 28 51 -7z m-499 -210 c-19 -5 -48 -43
-48 -63 0 -10 -5 -18 -10 -18 -6 0 -8 11 -4 25 3 14 -2 44 -12 70 -14 39 -15
48 -4 55 9 6 26 -4 52 -28 24 -23 34 -38 26 -41z m717 -72 c4 -6 4 -13 0 -17
-3 -3 -10 0 -14 7 -7 11 -13 9 -29 -7 -11 -11 -18 -23 -14 -26 7 -8 -12 -8
-32 0 -14 5 -14 8 1 30 11 17 24 24 49 24 18 0 36 -5 39 -11z m1095 -129 c-6
-11 -13 -20 -16 -20 -2 0 0 9 6 20 6 11 13 20 16 20 2 0 0 -9 -6 -20z m-1167
-60 c3 -12 -3 -29 -15 -43 l-19 -22 16 27 c17 28 9 43 -15 27 -8 -5 -11 -9 -6
-9 14 0 -15 -30 -30 -30 -19 0 -18 30 3 52 22 24 59 23 66 -2z m-646 -122 c-3
-8 -6 -5 -6 6 -1 11 2 17 5 13 3 -3 4 -12 1 -19z m553 -128 c-6 -11 -8 -26 -4
-32 5 -8 2 -9 -10 -5 -10 4 -22 7 -27 7 -20 0 -8 40 19 60 22 18 28 19 30 6 2
-8 -2 -24 -8 -36z m38 9 c-3 -8 -7 -3 -11 10 -4 17 -3 21 5 13 5 -5 8 -16 6
-23z"/>
<path d="M1800 2231 c0 -8 -7 -10 -20 -6 -15 5 -20 2 -20 -13 0 -11 7 -23 16
-26 25 -9 90 -7 120 4 37 14 18 32 -21 21 -24 -7 -35 -4 -52 12 -14 12 -23 16
-23 8z"/>
<path d="M1225 3310 c-3 -5 1 -10 10 -10 9 0 13 5 10 10 -3 6 -8 10 -10 10 -2
0 -7 -4 -10 -10z"/>
<path d="M1972 3290 c6 -21 47 -40 83 -39 28 1 27 2 -7 9 -21 4 -48 15 -59 26
-16 14 -21 15 -17 4z"/>
<path d="M2120 3285 c13 -16 35 -21 25 -6 -3 5 3 12 12 14 10 3 3 5 -16 6 -29
1 -32 -1 -21 -14z"/>
<path d="M1417 3246 c-4 -10 -5 -21 -2 -24 9 -9 17 6 13 25 -3 17 -4 17 -11
-1z"/>
<path d="M1555 3225 c4 -16 13 -37 21 -46 8 -8 15 -35 15 -60 l2 -44 10 53 c9
47 8 54 -10 70 -11 9 -25 26 -32 37 -11 18 -12 17 -6 -10z"/>
<path d="M2348 3213 c-20 -21 -25 -35 -21 -56 4 -22 8 -25 19 -16 8 7 12 20 9
29 -3 10 2 26 11 35 16 16 19 16 29 1 7 -9 15 -13 19 -9 6 7 -22 43 -34 43 -3
0 -18 -12 -32 -27z"/>
<path d="M1930 3184 c0 -36 0 -36 -37 -30 -21 4 -45 1 -53 -5 -11 -8 -8 -9 16
-4 42 8 69 -21 55 -59 -7 -17 -7 -26 -1 -26 6 0 15 20 22 44 l11 43 55 -38
c29 -21 59 -40 65 -42 9 -3 9 -10 0 -30 -12 -25 -11 -26 7 -15 16 10 24 10 40
0 28 -17 31 -15 27 12 -5 37 -33 63 -114 101 -40 20 -72 39 -72 43 3 21 -2 42
-11 42 -5 0 -10 -16 -10 -36z"/>
<path d="M703 3154 c4 -5 -2 -13 -15 -20 -21 -11 -20 -12 22 -33 53 -25 62
-26 34 -3 -11 10 -20 25 -18 34 1 9 -5 19 -14 23 -9 3 -13 3 -9 -1z"/>
<path d="M2335 3110 c3 -5 11 -10 16 -10 6 0 7 5 4 10 -3 6 -11 10 -16 10 -6
0 -7 -4 -4 -10z"/>
<path d="M810 3100 c0 -8 6 -22 13 -30 12 -14 77 -55 77 -48 0 2 -20 24 -45
48 -25 25 -45 38 -45 30z"/>
<path d="M2393 3088 c-23 -30 -24 -41 -2 -21 12 12 20 25 17 28 -3 3 -10 0
-15 -7z"/>
<path d="M570 3049 c-7 -11 -10 -23 -7 -25 2 -2 9 7 15 21 14 30 7 33 -8 4z"/>
<path d="M2222 3040 c0 -19 2 -27 5 -17 2 9 2 25 0 35 -3 9 -5 1 -5 -18z"/>
<path d="M510 2960 c-8 -5 -12 -11 -10 -14 3 -2 14 2 24 10 22 15 10 19 -14 4z"/>
<path d="M1435 2960 c-3 -5 -2 -10 4 -10 5 0 13 5 16 10 3 6 2 10 -4 10 -5 0
-13 -4 -16 -10z"/>
<path d="M1395 2930 c-10 -11 -13 -20 -8 -20 13 0 38 29 31 35 -3 3 -13 -4
-23 -15z"/>
<path d="M1196 2753 c-6 -14 -5 -15 5 -6 7 7 10 15 7 18 -3 3 -9 -2 -12 -12z"/>
<path d="M1420 2751 c0 -9 35 -53 78 -97 29 -30 46 -31 36 -1 -12 38 -35 67
-60 73 -12 3 -25 12 -28 20 -6 15 -26 19 -26 5z"/>
<path d="M306 2564 c-4 -20 -5 -38 -3 -40 3 -3 8 11 11 32 4 20 5 38 3 40 -3
3 -8 -11 -11 -32z"/>
<path d="M523 2293 c-13 -2 -23 -9 -23 -14 0 -13 13 -11 36 6 10 8 17 14 14
13 -3 0 -15 -3 -27 -5z"/>
<path d="M233 2187 c4 -10 7 -25 7 -33 0 -8 5 -14 10 -14 16 0 11 36 -7 51
-15 12 -16 12 -10 -4z"/>
<path d="M447 2169 c7 -7 15 -10 18 -7 3 3 -2 9 -12 12 -14 6 -15 5 -6 -5z"/>
<path d="M246 2075 c-3 -9 -6 -29 -5 -43 1 -22 3 -19 10 12 10 40 6 60 -5 31z"/>
<path d="M713 1685 c0 -8 4 -12 9 -9 5 3 6 10 3 15 -9 13 -12 11 -12 -6z"/>
<path d="M751 1584 c0 -11 3 -14 6 -6 3 7 2 16 -1 19 -3 4 -6 -2 -5 -13z"/>
<path d="M3403 1556 c39 -27 57 -32 57 -17 0 5 -12 14 -27 19 -16 5 -37 13
-48 17 -11 5 -3 -4 18 -19z"/>
<path d="M731 1544 c0 -11 3 -14 6 -6 3 7 2 16 -1 19 -3 4 -6 -2 -5 -13z"/>
<path d="M146 1480 c12 -88 81 -220 161 -306 27 -28 42 -42 34 -32 -20 25 -2
23 28 -4 14 -13 1 4 -30 37 -89 97 -157 208 -185 305 l-14 45 6 -45z"/>
<path d="M3465 1490 c7 -11 45 -33 45 -26 0 2 -7 12 -16 20 -17 18 -39 22 -29
6z"/>
<path d="M3815 1433 c-11 -20 -19 -40 -18 -44 1 -3 -17 -15 -40 -25 -76 -33
-87 -55 -51 -108 8 -11 11 -30 7 -44 -5 -21 -3 -24 11 -19 10 4 15 3 11 -3 -3
-6 -13 -10 -21 -10 -8 0 -14 -6 -14 -14 0 -9 7 -12 21 -9 19 5 20 4 10 -16 -7
-11 -9 -21 -5 -21 3 0 2 -6 -4 -12 -5 -7 -13 -29 -17 -48 -4 -19 -12 -40 -17
-47 -5 -7 -6 -18 -2 -24 4 -8 3 -9 -4 -5 -7 4 -12 1 -12 -9 0 -9 -9 -30 -21
-47 -12 -16 -19 -32 -15 -35 9 -9 66 18 66 32 0 8 12 28 28 46 15 18 22 30 15
26 -6 -4 0 13 13 38 14 25 30 43 35 39 5 -3 9 2 9 10 0 9 5 16 10 16 6 0 10
-9 10 -21 0 -11 4 -17 10 -14 5 3 8 0 6 -7 -7 -20 -16 -155 -10 -141 3 7 12 9
20 6 18 -7 18 -47 1 -65 -8 -7 -16 -20 -20 -28 -3 -9 -6 -2 -6 14 -1 24 -7 16
-41 -50 -42 -81 -96 -140 -203 -224 -32 -25 -70 -55 -86 -67 -16 -13 -35 -23
-43 -23 -7 0 -24 -7 -36 -16 -21 -14 -22 -14 -22 9 0 13 16 46 35 73 24 33 33
55 29 69 -4 11 -3 17 1 13 7 -7 45 43 45 58 0 3 -24 -19 -54 -49 -71 -74 -119
-146 -131 -197 -1 -3 -6 -21 -12 -40 -5 -20 -8 -50 -6 -67 3 -17 0 -34 -6 -37
-6 -4 -11 -15 -11 -24 0 -15 2 -15 10 -2 6 9 10 10 10 3 0 -25 -44 -55 -72
-49 -16 3 -28 1 -28 -4 0 -6 5 -10 11 -10 5 0 8 -4 5 -9 -9 -14 22 -34 44 -28
11 3 20 1 20 -5 0 -5 5 -6 10 -3 6 3 10 -2 10 -12 0 -15 2 -16 11 -3 8 11 9 8
4 -13 -4 -19 -2 -26 5 -22 13 8 13 -55 0 -89 -9 -24 -8 -26 19 -26 24 0 31 6
39 33 20 64 23 93 23 190 l-1 99 92 87 c303 286 402 427 399 574 -3 162 -7
214 -15 209 -5 -3 -6 5 -3 18 3 12 1 33 -4 47 -5 13 -11 63 -14 111 -3 48 -9
90 -13 94 -4 4 -16 -9 -27 -29z m45 -301 c0 -15 -2 -15 -10 -2 -13 20 -13 33
0 25 6 -3 10 -14 10 -23z m5 -137 c1 -19 -2 -32 -6 -29 -5 3 -8 20 -7 39 2 44
12 36 13 -10z m-75 -254 c-25 -36 -39 -42 -18 -8 8 12 18 28 22 35 5 7 10 11
13 8 3 -3 -5 -19 -17 -35z m-463 -556 c0 -8 -4 -15 -8 -15 -11 0 -20 16 -12
24 11 11 20 7 20 -9z"/>
<path d="M3048 1373 c7 -3 16 -2 19 1 4 3 -2 6 -13 5 -11 0 -14 -3 -6 -6z"/>
<path d="M3671 1214 c0 -11 3 -14 6 -6 3 7 2 16 -1 19 -3 4 -6 -2 -5 -13z"/>
<path d="M3395 1030 c-16 -16 -24 -30 -19 -30 6 0 23 14 39 30 16 17 24 30 19
30 -6 0 -23 -13 -39 -30z"/>
<path d="M3476 964 c-21 -42 -36 -78 -33 -80 2 -2 21 29 42 71 21 41 36 77 34
80 -3 2 -22 -30 -43 -71z"/>
<path d="M3289 975 c-5 -19 -3 -31 5 -37 6 -4 -1 -23 -17 -47 -23 -34 -30 -39
-49 -33 -13 5 -31 7 -41 4 -18 -4 -18 -5 -1 -23 9 -10 23 -19 31 -19 17 0 17
-10 -2 -37 -9 -12 -22 -20 -29 -17 -8 3 -17 1 -21 -5 -3 -6 1 -14 9 -17 13 -5
12 -12 -7 -50 -11 -24 -24 -44 -27 -44 -7 0 -34 56 -46 94 -14 46 -34 45 -30
-2 8 -77 61 -132 129 -132 45 0 127 32 127 50 0 14 -15 13 -70 -7 -45 -16 -49
-16 -65 0 -15 15 -15 17 0 17 9 0 14 4 11 8 -3 5 8 19 24 32 15 13 26 29 23
36 -9 23 17 56 39 51 11 -3 32 -1 47 4 l26 11 -32 13 c-18 8 -33 16 -33 19 0
3 14 28 30 55 33 54 31 81 -6 81 -13 0 -25 -2 -25 -5z"/>
<path d="M3579 742 c-39 -40 -129 -170 -142 -205 -6 -16 -5 -16 18 -1 29 19
31 13 8 -23 -10 -15 -12 -24 -5 -19 15 9 45 65 47 88 1 10 5 21 10 25 4 5 5 0
2 -9 -4 -12 -2 -15 8 -12 8 3 17 14 20 25 4 10 11 19 17 19 6 0 8 3 5 6 -4 4
-14 1 -24 -7 -10 -9 -7 0 8 21 13 19 28 38 34 42 5 4 6 10 2 14 -4 4 0 18 8
31 18 27 8 30 -16 5z m-79 -176 c0 -3 -4 -8 -10 -11 -5 -3 -10 -1 -10 4 0 6 5
11 10 11 6 0 10 -2 10 -4z"/>
<path d="M2786 713 c-6 -14 -5 -15 5 -6 7 7 10 15 7 18 -3 3 -9 -2 -12 -12z"/>
<path d="M2647 514 c-4 -4 -7 -14 -7 -23 0 -11 3 -12 11 -4 6 6 10 16 7 23 -2
6 -7 8 -11 4z"/>
<path d="M2830 391 c0 -12 5 -21 10 -21 6 0 10 6 10 14 0 8 -4 18 -10 21 -5 3
-10 -3 -10 -14z"/>
<path d="M2474 332 c-38 -38 -77 -84 -87 -103 -17 -31 -17 -32 0 -9 9 14 51
60 92 103 41 42 72 77 69 77 -3 0 -36 -31 -74 -68z"/>
<path d="M2890 320 c11 -20 50 -28 50 -10 0 5 -7 7 -15 4 -9 -4 -15 0 -15 10
0 9 -7 16 -15 16 -13 0 -14 -4 -5 -20z"/>
<path d="M2611 193 c-6 -10 -11 -14 -11 -9 0 12 -29 -27 -69 -92 -25 -43 -28
-53 -15 -50 22 4 74 88 74 120 0 6 3 8 7 5 3 -4 13 2 21 14 8 11 12 23 9 25
-3 3 -10 -3 -16 -13z"/>
<path d="M2328 139 c-18 -19 -41 -59 -35 -59 7 0 60 71 56 74 -2 1 -12 -5 -21
-15z"/>
<path d="M807 80 c-14 -59 -14 -80 -2 -80 16 0 25 45 15 79 l-7 26 -6 -25z"/>
<path d="M2290 37 c0 -10 -4 -15 -10 -12 -5 3 -10 1 -10 -5 0 -12 24 -24 39
-18 5 2 4 14 -4 28 -11 20 -14 21 -15 7z"/>
</g>
</svg>
